<svg version="1.1" xmlns="http://www.w3.org/2000/svg" viewBox="0 0 291.94732181119934 187.87223386164868" width="58px" height="37px">
  <!-- svg-source:excalidraw -->
  
  <defs>
    <style>
    </style>
  </defs>
  <rect x="0" y="0" width="291.94732181119934" height="187.87223386164868" fill="transparent"></rect><g stroke-linecap="round" transform="translate(20.14559006540503 10) rotate(0 32.88266399984718 32.59974349360368)"><path d="M42 1.03 C48.75 2.4, 56.34 8.84, 60.13 14.4 C63.92 19.96, 65.28 27.75, 64.75 34.41 C64.21 41.07, 61.66 49.29, 56.91 54.38 C52.16 59.46, 43.17 63.84, 36.25 64.91 C29.33 65.98, 21.06 64.32, 15.39 60.79 C9.72 57.26, 4.51 50.52, 2.22 43.74 C-0.07 36.96, -0.83 26.73, 1.66 20.11 C4.16 13.48, 10.93 7.12, 17.18 4 C23.43 0.89, 34.14 1.55, 39.16 1.41 C44.17 1.26, 45.14 2.26, 47.26 3.14 C49.39 4.02, 52.32 6.12, 51.9 6.7 M39.18 -0.46 C45.7 0.21, 53.17 5.11, 57.71 10.74 C62.25 16.37, 66.36 26.27, 66.42 33.31 C66.48 40.35, 62.64 47.68, 58.06 52.98 C53.49 58.27, 45.89 63.68, 38.94 65.08 C32 66.48, 22.57 64.75, 16.38 61.37 C10.19 57.99, 4.33 51.14, 1.8 44.8 C-0.73 38.46, -1.18 30.13, 1.22 23.34 C3.62 16.54, 10.46 7.76, 16.19 4.03 C21.92 0.3, 31.58 1.3, 35.62 0.93 C39.66 0.55, 40 1.51, 40.42 1.78 C40.83 2.05, 38.49 2.05, 38.1 2.55" stroke="var(--logo-svg-colour)" stroke-width="3" fill="none"></path></g><g stroke-linecap="round"><g transform="translate(75.40902405060638 64.97060360013438) rotate(0 7.858564058299294 43.85784690878157)"><path d="M0.18 0.57 C0.76 9.47, 1.55 39.67, 3.94 54.11 C6.33 68.54, 12.63 81.67, 14.5 87.2 M-1.18 -0.18 C-0.76 8.79, 0.24 40.54, 3.26 55.22 C6.27 69.91, 14.9 82.47, 16.9 87.9" stroke="var(--logo-svg-colour)" stroke-width="3" fill="none"></path></g></g><g stroke-linecap="round"><g transform="translate(32.91798046185522 65.52481539606708) rotate(0 -8.091539822126833 42.548611551696325)"><path d="M-2.56 -0.65 C-2.59 9.64, -0.66 47.96, -2.72 62.12 C-4.77 76.28, -12.74 80.68, -14.89 84.31 M-0.59 1.62 C-0.64 12.04, -0.57 49.38, -3.07 63.4 C-5.58 77.42, -13.49 82.16, -15.6 85.75" stroke="var(--logo-svg-colour)" stroke-width="3" fill="none"></path></g></g><g stroke-linecap="round"><g transform="translate(12.761195223778486 149.74238056616736) rotate(0 44.894026537180025 13.369897586453021)"><path d="M0.58 0.73 C20.6 -3.61, 35.66 0.75, 92.13 3.15 M0.17 -1.13 C21.65 1.3, 40.82 2.07, 89.16 -0.15 M92.55 1 C91.55 9.02, 85.74 22.39, 87.51 25.1 M87.19 0.61 C88.79 7.85, 87.62 12.02, 86.08 25.98 M86.59 27.89 C59.41 28.58, 32.5 26.95, -0.52 22.46 M87.56 28.13 C63.45 27.53, 41.05 28.09, -2.76 25.42 M1.1 25.95 C-2.02 21.43, -3.26 14.99, -1.55 -1.39 M-0.42 23.49 C-0.3 21.36, -2.76 14.8, 0.97 -0.99" stroke="var(--logo-svg-colour)" stroke-width="3" fill="none"></path></g></g><g transform="translate(274.44732181119934 66.81640318289533) rotate(0 -28.125 18.74999999999997)" stroke="var(--logo-svg-colour)" stroke-width=4 fill="var(--logo-svg-colour)"><path d="M -4.71,1.88 Q -4.71,1.88 -5.95,-1.78 -7.19,-5.45 -8.41,-7.35 -9.63,-9.24 -11.27,-10.69 -12.90,-12.14 -16.20,-13.59 -19.50,-15.04 -22.46,-14.89 -25.41,-14.74 -27.76,-14.35 -30.10,-13.97 -34.06,-11.38 -38.02,-8.79 -40.06,-7.00 -42.11,-5.21 -44.36,-2.89 -46.62,-0.57 -48.67,1.83 -50.72,4.25 -52.67,6.70 -54.62,9.14 -55.52,11.24 -56.42,13.34 -57.14,15.60 -57.86,17.87 -58.09,21.10 -58.32,24.33 -58.26,27.17 -58.19,30.01 -56.68,33.41 -55.17,36.82 -54.32,38.98 -53.47,41.14 -51.20,43.81 -48.94,46.48 -46.19,48.24 -43.43,50.01 -40.70,51.08 -37.97,52.16 -34.65,52.38 -31.34,52.61 -27.66,52.64 -23.98,52.68 -21.27,52.61 -18.56,52.55 -14.68,51.83 -10.80,51.11 -8.47,50.82 -6.13,50.54 -4.00,49.61 -1.88,48.69 0.51,47.03 2.91,45.37 3.77,44.76 4.63,44.15 5.64,43.84 6.64,43.54 7.70,43.57 8.75,43.60 9.74,43.97 10.73,44.34 11.54,45.00 12.36,45.67 12.93,46.56 13.49,47.45 13.74,48.47 13.99,49.50 13.90,50.55 13.81,51.60 13.39,52.56 12.97,53.53 12.26,54.31 11.55,55.09 10.63,55.60 9.71,56.12 8.68,56.31 7.64,56.51 6.60,56.36 5.55,56.21 4.61,55.74 3.67,55.27 2.93,54.52 2.19,53.77 1.72,52.82 1.26,51.88 1.12,50.83 0.99,49.79 1.19,48.75 1.39,47.72 1.92,46.81 2.44,45.89 3.23,45.19 4.01,44.49 4.98,44.08 5.95,43.67 7.00,43.59 8.05,43.51 9.08,43.77 10.10,44.02 10.98,44.60 11.87,45.17 12.52,45.99 13.18,46.82 13.54,47.81 13.90,48.80 13.92,49.85 13.94,50.90 13.63,51.91 13.32,52.92 12.70,53.77 12.08,54.62 12.08,54.62 12.08,54.62 10.03,56.44 7.98,58.25 5.79,59.24 3.60,60.23 1.37,60.83 -0.85,61.43 -4.41,62.16 -7.98,62.90 -10.37,63.47 -12.76,64.04 -15.67,64.49 -18.58,64.93 -21.35,64.84 -24.13,64.75 -28.12,64.62 -32.10,64.50 -34.33,64.33 -36.56,64.16 -39.44,63.68 -42.32,63.20 -44.35,62.35 -46.38,61.50 -49.67,59.30 -52.96,57.11 -55.20,55.52 -57.45,53.93 -58.91,52.15 -60.37,50.37 -62.85,45.80 -65.34,41.22 -66.46,38.64 -67.58,36.06 -68.30,31.23 -69.03,26.41 -68.59,23.07 -68.15,19.73 -67.61,17.22 -67.06,14.71 -66.06,11.98 -65.05,9.24 -63.56,6.32 -62.08,3.40 -60.10,0.80 -58.13,-1.78 -56.03,-4.46 -53.92,-7.14 -51.48,-10.05 -49.03,-12.95 -46.77,-15.00 -44.51,-17.05 -41.60,-19.40 -38.69,-21.75 -35.43,-23.32 -32.17,-24.89 -29.28,-25.43 -26.40,-25.96 -22.88,-26.22 -19.35,-26.48 -15.56,-25.23 -11.77,-23.97 -9.04,-22.05 -6.30,-20.14 -3.86,-17.12 -1.42,-14.11 0.00,-11.51 1.44,-8.92 3.07,-5.40 4.71,-1.88 4.86,-1.29 5.02,-0.70 5.03,-0.09 5.04,0.52 4.91,1.11 4.77,1.71 4.50,2.26 4.22,2.80 3.82,3.27 3.43,3.73 2.93,4.09 2.43,4.44 1.87,4.67 1.30,4.90 0.69,4.98 0.09,5.07 -0.51,5.01 -1.12,4.94 -1.70,4.74 -2.27,4.53 -2.78,4.19 -3.29,3.85 -3.70,3.40 -4.12,2.95 -4.41,2.42 -4.71,1.88 -4.71,1.88 L -4.71,1.88 Z"></path></g><g transform="translate(119.44732181119934 129.31640318289527) rotate(0 38.125 -41.875)" stroke="none" fill="var(--logo-svg-colour)"><path d="M -7.57,-2.86 Q -7.57,-2.86 -2.19,-16.02 3.19,-29.18 6.93,-41.97 10.67,-54.76 13.10,-63.17 15.53,-71.58 16.46,-76.42 17.39,-81.26 17.63,-83.70 17.87,-86.13 18.23,-87.01 18.60,-87.88 19.16,-88.64 19.72,-89.40 20.44,-90.01 21.17,-90.61 22.02,-91.02 22.87,-91.44 23.80,-91.63 24.72,-91.83 25.66,-91.80 26.61,-91.77 27.52,-91.52 28.43,-91.26 29.25,-90.80 30.08,-90.33 30.76,-89.68 31.45,-89.03 31.96,-88.24 32.48,-87.45 32.78,-86.55 33.09,-85.66 33.17,-84.72 33.26,-83.78 33.12,-82.84 32.97,-81.91 37.21,-71.50 41.44,-61.10 42.98,-52.92 44.51,-44.75 45.97,-37.29 47.42,-29.83 48.71,-24.54 49.99,-19.26 50.77,-14.53 51.54,-9.81 52.30,-4.54 53.07,0.73 46.25,-1.45 39.43,-3.64 43.48,-16.94 47.53,-30.24 51.30,-41.23 55.06,-52.22 57.88,-60.40 60.69,-68.58 62.25,-74.36 63.80,-80.14 66.41,-86.70 69.03,-93.26 69.94,-94.29 70.84,-95.33 72.04,-96.02 73.23,-96.71 74.58,-96.98 75.93,-97.25 77.30,-97.08 78.66,-96.91 79.90,-96.31 81.14,-95.71 82.13,-94.75 83.11,-93.78 83.73,-92.55 84.36,-91.32 84.56,-89.96 84.76,-88.60 84.51,-87.24 84.27,-85.89 83.60,-84.68 82.93,-83.48 81.92,-82.55 80.90,-81.62 79.64,-81.06 78.38,-80.50 77.01,-80.38 75.64,-80.25 74.30,-80.57 72.96,-80.89 71.79,-81.62 70.62,-82.35 69.75,-83.42 68.87,-84.48 68.39,-85.77 67.90,-87.06 67.85,-88.43 67.80,-89.81 68.19,-91.13 68.58,-92.45 69.37,-93.58 70.17,-94.71 71.28,-95.52 72.39,-96.34 73.70,-96.75 75.01,-97.17 76.39,-97.15 77.77,-97.12 79.07,-96.66 80.36,-96.20 81.44,-95.34 82.53,-94.49 83.28,-93.34 84.03,-92.19 84.38,-90.85 84.72,-89.52 84.63,-88.14 84.53,-86.77 84.00,-85.50 83.46,-84.23 83.46,-84.23 83.46,-84.23 80.96,-79.90 78.46,-75.57 76.48,-70.01 74.50,-64.45 72.37,-56.08 70.24,-47.71 67.46,-36.68 64.68,-25.65 62.52,-15.23 60.37,-4.80 54.91,3.72 49.46,12.25 41.96,5.17 34.46,-1.90 34.51,-9.14 34.57,-16.37 33.87,-21.67 33.17,-26.96 31.66,-34.24 30.14,-41.53 28.07,-49.45 25.99,-57.37 24.41,-67.61 22.82,-77.84 20.34,-81.99 17.87,-86.13 18.23,-87.01 18.60,-87.88 19.16,-88.64 19.72,-89.40 20.44,-90.01 21.17,-90.61 22.02,-91.02 22.87,-91.44 23.79,-91.63 24.72,-91.83 25.66,-91.80 26.61,-91.77 27.52,-91.52 28.43,-91.26 29.25,-90.80 30.07,-90.33 30.76,-89.68 31.45,-89.04 31.96,-88.24 32.47,-87.45 32.78,-86.55 33.09,-85.66 33.17,-84.72 33.26,-83.78 33.12,-82.84 32.97,-81.91 32.10,-79.65 31.22,-77.39 29.53,-72.86 27.84,-68.33 25.80,-59.77 23.75,-51.21 20.34,-37.60 16.92,-23.99 12.25,-10.56 7.57,2.86 7.12,3.73 6.67,4.59 6.02,5.32 5.37,6.05 4.57,6.61 3.76,7.17 2.85,7.51 1.94,7.86 0.97,7.98 0.00,8.10 -0.96,7.98 -1.93,7.86 -2.84,7.52 -3.75,7.17 -4.56,6.62 -5.36,6.06 -6.01,5.33 -6.66,4.60 -7.11,3.74 -7.57,2.87 -7.80,1.92 -8.04,0.98 -8.04,0.00 -8.04,-0.97 -7.80,-1.91 -7.57,-2.86 -7.57,-2.86 L -7.57,-2.86 Z"></path></g></svg>